# xmcd CD database file
#
# Track frame offsets:
#	150
#	18044
#	29448
#	43741
#	55687
#	69701
#	93765
#	103288
#	123051
#	137254
#	147062
#	159830
#	170494
#	187534
#	206746
#
# Disc length: 2921 seconds
#
# Revision: 0
# Processed by: cddbd v1.5.1PL0 Copyright (c) Steve Scherf et al.
# Submitted via: CDex 1.50
#
DISCID=b80b670f
DTITLE=Gordon Giltrap - Elegy
DYEAR=1986
DGENRE=Jazz
TTITLE0=In Unison
TTITLE1=A Christmas Carol
TTITLE2=The Mariners Tale
TTITLE3=Blue Lady
TTITLE4=Lucky
TTITLE5=Elegy
TTITLE6=Spring Dance
TTITLE7=The Paocher
TTITLE8=Sallies Song
TTITLE9=Storm Brewing
TTITLE10=Downwind
TTITLE11=Sleuth
TTITLE12=Gold
TTITLE13=Solitaire
TTITLE14=Gemini
EXTD=YEAR: 1986
EXTT0=
EXTT1=
EXTT2=
EXTT3=
EXTT4=
EXTT5=
EXTT6=
EXTT7=
EXTT8=
EXTT9=
EXTT10=
EXTT11=
EXTT12=
EXTT13=
EXTT14=
PLAYORDER=
